<?xml version="1.0" encoding="UTF-8"?>
<svg id="Layer_1" xmlns="http://www.w3.org/2000/svg" version="1.1" viewBox="0 0 595.28 841.89">
  <!-- Generator: Adobe Illustrator 29.2.1, SVG Export Plug-In . SVG Version: 2.1.0 Build 116)  -->
  <defs>
    <style>
      .st0 {
        fill: #231f1f;
      }

      .st1 {
        fill: #c25327;
      }

      .st2 {
        font-family: Poppins-ExtraBold, 'Poppins ExtraBold';
        font-size: 10.72px;
        letter-spacing: .12em;
      }

      .st2, .st3, .st4, .st5 {
        fill: #010101;
      }

      .st2, .st6 {
        font-weight: 700;
      }

      .st7, .st6 {
        fill: #fff;
      }

      .st3 {
        font-size: 9.31px;
        letter-spacing: .1em;
      }

      .st3, .st4, .st5 {
        font-family: Poppins-Medium, 'Poppins Medium';
        font-weight: 500;
      }

      .st4 {
        letter-spacing: .1em;
      }

      .st4, .st5 {
        font-size: 9.31px;
      }

      .st5 {
        letter-spacing: .1em;
      }

      .st8 {
        fill: #e2a238;
      }

      .st6 {
        font-family: DINCondensed-Bold, 'DINCondensed Bold';
        font-size: 15.66px;
      }
    </style>
  </defs>
  <text class="st2" transform="translate(69.52 215.42)"><tspan x="0" y="0">TEACHING METHODOLOGY</tspan></text>
  <g>
    <text class="st4" transform="translate(69.89 454.64)"><tspan x="0" y="0">UNDERSTAND</tspan></text>
    <text class="st4" transform="translate(221.65 454.64)"><tspan x="0" y="0">DEFINE</tspan></text>
    <text class="st4" transform="translate(323.23 347.24)"><tspan x="0" y="0">IDEATE</tspan></text>
    <text class="st5" transform="translate(268.75 296.1)"><tspan x="0" y="0">PROTOTYPE</tspan></text>
    <text class="st3" transform="translate(242.47 347.06) rotate(.24)"><tspan x="0" y="0">EVALUATE</tspan></text>
    <text class="st5" transform="translate(350.12 454.64)"><tspan x="0" y="0">EXECUTE</tspan></text>
    <text class="st5" transform="translate(489 454.64)"><tspan x="0" y="0">DELIVER</tspan></text>
    <path class="st8" d="M392.16,341.04h-17.9c0-39.27-31.95-71.22-71.22-71.22v-17.9c49.14,0,89.12,39.98,89.12,89.12Z"/>
    <path class="st8" d="M231.82,341.04h-17.9c0-49.14,39.98-89.12,89.12-89.12v17.9c-39.27,0-71.22,31.95-71.22,71.22Z"/>
    <path class="st8" d="M303.04,430.16v-17.9c39.27,0,71.22-31.95,71.22-71.22h17.9c0,49.14-39.98,89.12-89.12,89.12Z"/>
    <rect class="st8" x="108.1" y="412.26" width="194.93" height="17.9"/>
    <g>
      <path class="st8" d="M239.89,390.5c-10.66-13.61-17.02-30.76-17.02-49.39"/>
      <path class="st8" d="M232.84,396.02c-12.38-15.8-18.92-34.79-18.92-54.91h17.9c0,16.08,5.23,31.25,15.11,43.88l-14.09,11.04Z"/>
    </g>
    <polygon class="st1" points="249.49 397.16 227.77 397.16 227.77 388.22 241.15 389.51 240.54 375.45 249.49 375.45 249.49 397.16"/>
    <line class="st0" x1="361.27" y1="421.21" x2="541.41" y2="421.21"/>
    <rect class="st8" x="361.27" y="412.26" width="180.14" height="17.9"/>
    <g>
      <g>
        <circle class="st7" cx="241.99" cy="421.27" r="19.05"/>
        <circle class="st0" cx="241.99" cy="421.27" r="13.78"/>
      </g>
      <text class="st6" transform="translate(239.07 426.01)"><tspan x="0" y="0">2</tspan></text>
    </g>
    <g>
      <g>
        <circle class="st7" cx="382.99" cy="341.1" r="19.05"/>
        <circle class="st0" cx="382.99" cy="341.1" r="13.78"/>
      </g>
      <text class="st6" transform="translate(380.08 345.84)"><tspan x="0" y="0">3</tspan></text>
    </g>
    <g>
      <g>
        <circle class="st7" cx="300.8" cy="261.28" r="19.05"/>
        <circle class="st0" cx="300.8" cy="261.28" r="13.78"/>
      </g>
      <text class="st6" transform="translate(297.88 266.02)"><tspan x="0" y="0">4</tspan></text>
    </g>
    <g>
      <g>
        <circle class="st7" cx="512.74" cy="421.27" r="19.05"/>
        <circle class="st0" cx="512.74" cy="421.27" r="13.78"/>
      </g>
      <text class="st6" transform="translate(509.83 426.01)"><tspan x="0" y="0">7</tspan></text>
    </g>
    <g>
      <g>
        <circle class="st7" cx="375.51" cy="421.27" r="19.05"/>
        <circle class="st0" cx="375.51" cy="421.27" r="13.78"/>
      </g>
      <text class="st6" transform="translate(372.6 426.01)"><tspan x="0" y="0">6</tspan></text>
    </g>
    <g>
      <g>
        <circle class="st7" cx="108.1" cy="421.27" r="19.05"/>
        <circle class="st0" cx="108.1" cy="421.27" r="13.78"/>
      </g>
      <text class="st6" transform="translate(105.19 426.01)"><tspan x="0" y="0">1</tspan></text>
    </g>
    <g>
      <g>
        <circle class="st7" cx="222.87" cy="341.1" r="19.05"/>
        <circle class="st0" cx="222.87" cy="341.1" r="13.78"/>
      </g>
      <text class="st6" transform="translate(219.95 345.84)"><tspan x="0" y="0">5</tspan></text>
    </g>
    <g>
      <polyline class="st8" points="538.63 409.08 550.82 421.27 538.63 433.46"/>
      <polygon class="st1" points="541.79 436.63 535.47 430.3 544.5 421.27 535.47 412.24 541.79 405.91 557.15 421.27 541.79 436.63"/>
    </g>
  </g>
  <g>
    <path class="st0" d="M72.07,469.38c.25.15.45.35.59.61.14.26.21.55.21.89s-.07.63-.21.88-.34.46-.59.6c-.25.15-.54.22-.87.22s-.62-.08-.87-.22c-.25-.15-.45-.35-.59-.61-.14-.26-.21-.55-.21-.89s.07-.63.22-.88c.14-.26.34-.46.6-.6.25-.15.55-.22.87-.22s.61.08.87.22ZM70.42,469.54c-.22.13-.39.3-.51.53s-.18.49-.18.79.06.56.18.79.29.41.51.54c.22.13.48.19.78.2s.55-.06.77-.19.39-.31.51-.54.18-.49.18-.79-.06-.57-.18-.8-.29-.41-.51-.53c-.22-.13-.48-.19-.77-.19s-.56.06-.78.19ZM70.66,469.88c-.16.09-.29.22-.38.39s-.14.37-.14.59.04.42.14.59.22.3.38.39.33.14.53.14c.24,0,.45-.06.63-.19.18-.13.3-.3.36-.52h-.41c-.1.26-.29.4-.58.4-.19,0-.35-.07-.47-.21-.12-.14-.18-.34-.18-.59s.06-.45.19-.59c.12-.14.28-.21.47-.21.14,0,.26.04.37.11s.17.17.22.3h.41c-.06-.23-.18-.4-.35-.53s-.39-.19-.63-.19c-.19,0-.37.04-.53.13Z"/>
    <path class="st0" d="M78.83,469.22l-1.28,3.35h-.51s-1.25-3.37-1.25-3.37h.47s1.04,2.9,1.04,2.9l1.07-2.89h.46Z"/>
    <path class="st0" d="M79.75,469.94v2.64s-.45,0-.45,0v-2.64s.45,0,.45,0ZM79.32,469.43c-.06-.06-.09-.13-.09-.21s.03-.15.09-.21.13-.09.21-.09.15.03.2.09c.06.06.08.13.08.21s-.03.15-.09.21c-.06.06-.12.09-.21.09s-.15-.03-.21-.09Z"/>
    <path class="st0" d="M80.87,472.53c-.16-.07-.29-.17-.38-.29-.09-.12-.14-.27-.15-.43h.45c.01.13.07.24.18.33.11.08.26.13.44.13.17,0,.3-.04.4-.11.1-.07.15-.17.15-.28s-.05-.2-.15-.26c-.1-.06-.26-.11-.48-.17-.2-.05-.36-.11-.48-.16-.12-.05-.23-.13-.32-.24-.09-.1-.13-.24-.13-.41,0-.13.04-.26.12-.37.08-.11.2-.2.34-.27.15-.07.32-.1.51-.1.29,0,.53.08.71.22.18.15.27.35.29.61h-.44c0-.14-.06-.25-.16-.34-.1-.08-.24-.13-.41-.13-.16,0-.28.03-.38.1-.09.07-.14.16-.14.26,0,.09.03.16.08.21.06.06.13.1.21.14s.2.07.35.11c.19.05.34.1.46.15s.22.13.31.23.13.23.13.39c0,.14-.04.27-.12.39-.08.12-.19.21-.34.27-.15.07-.31.1-.5.1-.2,0-.38-.04-.54-.11Z"/>
    <path class="st0" d="M85.35,469.97v2.64s-.45,0-.45,0v-.39c-.08.13-.2.24-.35.31s-.31.11-.49.11c-.21,0-.39-.04-.55-.13-.16-.09-.29-.21-.39-.38-.09-.17-.14-.38-.14-.62v-1.55s.44,0,.44,0v1.49c0,.26.06.46.19.6s.31.21.54.21.42-.07.56-.21.2-.35.21-.63v-1.45s.44,0,.44,0Z"/>
    <path class="st0" d="M86.09,470.57c.11-.2.26-.36.45-.47.19-.11.4-.17.64-.17s.43.05.6.15c.17.1.3.23.38.38v-.48s.45,0,.45,0v2.64s-.45,0-.45,0v-.49c-.09.15-.22.28-.39.38-.17.1-.37.15-.6.15s-.45-.06-.64-.18c-.19-.12-.34-.28-.45-.49s-.16-.45-.16-.71.06-.51.17-.71ZM88.04,470.77c-.08-.15-.19-.26-.32-.34-.14-.08-.29-.12-.45-.12s-.31.04-.45.11c-.14.08-.24.19-.32.34-.08.15-.12.32-.12.52s.04.38.12.53c.08.15.19.26.32.34.13.08.28.12.45.12s.31-.04.45-.12c.14-.08.25-.19.33-.34.08-.15.12-.32.12-.52s-.04-.37-.12-.52Z"/>
    <path class="st0" d="M89.8,469.06v3.57s-.45,0-.45,0v-3.57s.45,0,.45,0Z"/>
    <path class="st0" d="M91.88,470.07c.15-.26.35-.47.61-.61.26-.15.54-.22.85-.22.37,0,.69.09.96.27.27.18.47.43.59.75h-.53c-.09-.21-.23-.36-.4-.47s-.38-.17-.63-.17-.45.05-.63.16c-.19.11-.33.26-.44.46-.11.2-.16.44-.16.71s.05.5.16.7c.11.2.25.36.44.47.19.11.4.17.63.17s.45-.05.63-.16.31-.26.4-.46h.53c-.13.32-.33.57-.6.74-.27.17-.59.26-.96.26-.31,0-.6-.08-.85-.22-.25-.15-.46-.35-.6-.61s-.22-.56-.22-.88.08-.62.23-.88Z"/>
    <path class="st0" d="M96.02,472.53c-.2-.11-.36-.27-.47-.48-.11-.21-.17-.45-.17-.72s.06-.51.18-.72.28-.37.48-.48.43-.16.68-.16.48.06.68.17c.2.11.36.27.48.48.12.21.17.45.17.72s-.06.51-.18.72c-.12.21-.29.37-.49.48-.21.11-.43.17-.69.17s-.47-.06-.67-.17ZM97.13,472.2c.14-.07.25-.18.34-.33.09-.15.13-.33.13-.54s-.04-.39-.12-.54c-.08-.15-.19-.26-.33-.33-.13-.07-.28-.11-.44-.11s-.31.03-.44.11c-.13.07-.24.18-.32.33-.08.15-.12.33-.12.54s.04.4.12.55c.08.15.18.26.31.33.13.07.28.11.43.11s.31-.04.44-.11Z"/>
    <path class="st0" d="M102.36,470.12c.16.09.29.21.38.38.09.17.14.38.14.62v1.56s-.44,0-.44,0v-1.49c0-.26-.06-.47-.19-.61-.13-.14-.31-.21-.53-.21s-.41.07-.55.22c-.14.15-.2.36-.21.63v1.46s-.44,0-.44,0v-1.49c0-.26-.06-.47-.19-.61-.13-.14-.31-.21-.53-.21s-.41.07-.55.22c-.14.15-.2.36-.21.63v1.46s-.44,0-.44,0v-2.64s.45,0,.45,0v.38c.09-.14.2-.24.35-.32.15-.07.31-.11.48-.11.22,0,.42.05.59.15.17.1.3.25.38.44.07-.19.2-.33.37-.43.17-.1.36-.15.57-.15s.39.04.55.13Z"/>
    <path class="st0" d="M107.32,470.14c.16.09.29.21.38.38.09.17.14.38.14.62v1.56s-.44,0-.44,0v-1.49c0-.26-.06-.47-.19-.61-.13-.14-.31-.21-.53-.21s-.41.07-.55.22c-.14.15-.2.36-.21.63v1.46s-.44,0-.44,0v-1.49c0-.26-.06-.47-.19-.61-.13-.14-.31-.21-.53-.21s-.41.07-.55.22c-.14.15-.2.36-.21.63v1.46s-.44,0-.44,0v-2.64s.45,0,.45,0v.38c.09-.14.2-.24.35-.32.15-.07.31-.11.48-.11.22,0,.42.05.59.15.17.1.3.25.38.44.07-.19.2-.33.37-.43.17-.1.36-.15.57-.15s.39.04.55.13Z"/>
    <path class="st0" d="M110.91,470.07v2.64s-.45,0-.45,0v-.39c-.08.13-.2.24-.35.31s-.31.11-.49.11c-.21,0-.39-.04-.55-.13-.16-.09-.29-.21-.39-.38-.09-.17-.14-.38-.14-.62v-1.55s.44,0,.44,0v1.49c0,.26.06.46.19.6s.31.21.54.21.42-.07.56-.21.2-.35.21-.63v-1.45s.44,0,.44,0Z"/>
    <path class="st0" d="M113.72,470.33c.2.2.3.48.3.84v1.56s-.44,0-.44,0v-1.49c0-.26-.06-.47-.19-.61-.13-.14-.31-.21-.54-.21s-.42.07-.55.21-.21.35-.21.63v1.46s-.44,0-.44,0v-2.64s.45,0,.45,0v.38c.09-.13.2-.24.35-.31s.31-.11.49-.11c.32,0,.58.1.78.29Z"/>
    <path class="st0" d="M115.17,470.09v2.64s-.45,0-.45,0v-2.64s.45,0,.45,0ZM114.75,469.57c-.06-.06-.09-.13-.09-.21s.03-.15.09-.21.13-.09.21-.09.15.03.2.09c.06.06.08.13.08.21s-.03.15-.09.21c-.06.06-.12.09-.21.09s-.15-.03-.21-.09Z"/>
    <path class="st0" d="M115.92,470.69c.11-.2.26-.36.46-.47.19-.11.42-.17.67-.17.32,0,.59.08.8.24.21.16.35.38.41.66h-.47c-.04-.16-.13-.29-.26-.38-.13-.09-.29-.14-.48-.14-.25,0-.45.08-.61.26-.15.17-.23.41-.23.73s.07.56.23.74c.15.17.36.26.61.26.19,0,.35-.04.48-.13s.22-.22.27-.38h.47c-.07.27-.21.49-.43.65-.21.16-.48.24-.8.24-.25,0-.47-.06-.67-.17-.19-.11-.35-.27-.45-.48-.11-.21-.16-.45-.16-.72s.06-.51.17-.72Z"/>
    <path class="st0" d="M118.84,470.71c.11-.2.26-.36.45-.47.19-.11.4-.17.64-.17s.43.05.6.15c.17.1.3.23.38.38v-.48s.45,0,.45,0v2.64s-.45,0-.45,0v-.49c-.09.15-.22.28-.39.38-.17.1-.37.15-.6.15s-.45-.06-.64-.18c-.19-.12-.34-.28-.45-.49s-.16-.45-.16-.71.06-.51.17-.71ZM120.8,470.91c-.08-.15-.19-.26-.32-.34-.14-.08-.29-.12-.45-.12s-.31.04-.45.11c-.14.08-.24.19-.32.34-.08.15-.12.32-.12.52s.04.38.12.53c.08.15.19.26.32.34.13.08.28.12.45.12s.31-.04.45-.12c.14-.08.25-.19.33-.34.08-.15.12-.32.12-.52s-.04-.37-.12-.52Z"/>
    <path class="st0" d="M122.64,470.48v1.56c0,.13.02.22.07.27.05.05.15.08.28.08h.32s0,.37,0,.37h-.4c-.24,0-.43-.06-.55-.17-.12-.11-.18-.3-.18-.56v-1.56s-.34,0-.34,0v-.36s.34,0,.34,0v-.67s.44,0,.44,0v.67s.69,0,.69,0v.36s-.69,0-.69,0Z"/>
    <path class="st0" d="M124.3,470.13v2.64s-.45,0-.45,0v-2.64s.45,0,.45,0ZM123.88,469.61c-.06-.06-.09-.13-.09-.21s.03-.15.09-.21.13-.09.21-.09.15.03.2.09c.06.06.08.13.08.21s-.03.15-.09.21c-.06.06-.12.09-.21.09s-.15-.03-.21-.09Z"/>
    <path class="st0" d="M125.52,472.65c-.2-.11-.36-.27-.47-.48-.11-.21-.17-.45-.17-.72s.06-.51.18-.72.28-.37.48-.48.43-.16.68-.16.48.06.68.17c.2.11.36.27.48.48.12.21.17.45.17.72s-.06.51-.18.72c-.12.21-.29.37-.49.48-.21.11-.43.17-.69.17s-.47-.06-.67-.17ZM126.63,472.33c.14-.07.25-.18.34-.33.09-.15.13-.33.13-.54s-.04-.39-.12-.54c-.08-.15-.19-.26-.33-.33-.13-.07-.28-.11-.44-.11s-.31.03-.44.11c-.13.07-.24.18-.32.33-.08.15-.12.33-.12.54s.04.4.12.55c.08.15.18.26.31.33.13.07.28.11.43.11s.31-.04.44-.11Z"/>
    <path class="st0" d="M130.2,470.4c.2.2.3.48.3.84v1.56s-.44,0-.44,0v-1.49c0-.26-.06-.47-.19-.61-.13-.14-.31-.21-.54-.21s-.42.07-.55.21-.21.35-.21.63v1.46s-.44,0-.44,0v-2.64s.45,0,.45,0v.38c.09-.13.2-.24.35-.31s.31-.11.49-.11c.32,0,.58.1.78.29Z"/>
    <path class="st0" d="M134.5,469.66c.27.14.47.33.61.59s.21.55.21.9-.07.64-.22.89-.35.44-.62.58-.59.2-.95.2h-1.05s.01-3.36.01-3.36h1.05c.37,0,.68.08.95.21ZM134.54,472.11c.23-.23.34-.55.35-.97s-.11-.74-.34-.98c-.23-.24-.56-.35-.99-.36h-.61s-.01,2.64-.01,2.64h.61c.43,0,.77-.11.99-.34Z"/>
    <path class="st0" d="M138.3,471.67h-2.11c.02.25.1.46.27.6.16.15.36.22.59.22.19,0,.35-.04.48-.13.13-.09.22-.21.27-.35h.47c-.07.26-.21.46-.43.62-.21.16-.48.24-.79.24-.25,0-.47-.06-.67-.17-.2-.11-.35-.27-.46-.48-.11-.21-.17-.45-.17-.72s.06-.51.17-.72c.11-.21.26-.36.46-.47.2-.11.43-.16.68-.16s.47.06.66.17.34.26.44.45c.1.19.15.41.15.65,0,.08,0,.17-.02.27ZM137.76,470.88c-.07-.12-.17-.21-.3-.28-.13-.06-.27-.1-.42-.1-.22,0-.41.07-.57.21-.16.14-.25.34-.27.59h1.67c0-.16-.04-.3-.11-.42Z"/>
    <path class="st0" d="M139.28,472.77c-.16-.07-.29-.17-.38-.29-.09-.12-.14-.27-.15-.43h.45c.01.13.07.24.18.33.11.08.26.13.44.13.17,0,.3-.04.4-.11.1-.07.15-.17.15-.28s-.05-.2-.15-.26c-.1-.06-.26-.11-.48-.17-.2-.05-.36-.11-.48-.16-.12-.05-.23-.13-.32-.24-.09-.1-.13-.24-.13-.41,0-.13.04-.26.12-.37.08-.11.2-.2.34-.27.15-.07.32-.1.51-.1.29,0,.53.08.71.22.18.15.27.35.29.61h-.44c0-.14-.06-.25-.16-.34-.1-.08-.24-.13-.41-.13-.16,0-.28.03-.38.1-.09.07-.14.16-.14.26,0,.09.03.16.08.21.06.06.13.1.21.14s.2.07.35.11c.19.05.34.1.46.15s.22.13.31.23.13.23.13.39c0,.14-.04.27-.12.39-.08.12-.19.21-.34.27-.15.07-.31.1-.5.1-.2,0-.38-.04-.54-.11Z"/>
    <path class="st0" d="M141.86,470.2v2.64s-.45,0-.45,0v-2.64s.45,0,.45,0ZM141.43,469.68c-.06-.06-.09-.13-.09-.21s.03-.15.09-.21.13-.09.21-.09.15.03.2.09c.06.06.08.13.08.21s-.03.15-.09.21c-.06.06-.12.09-.21.09s-.15-.03-.21-.09Z"/>
    <path class="st0" d="M144.29,470.32c.17.1.3.23.38.38v-.48s.45,0,.45,0v2.7c-.01.24-.06.46-.17.64-.1.19-.25.33-.44.44-.19.11-.41.16-.67.16-.35,0-.64-.08-.87-.25-.23-.16-.37-.39-.41-.67h.43c.05.16.15.29.3.39s.33.15.54.15c.24,0,.44-.07.59-.22.15-.15.23-.36.23-.64v-.55c-.09.15-.21.28-.38.38-.17.1-.37.15-.6.15s-.45-.06-.64-.18c-.19-.12-.34-.28-.45-.49s-.16-.45-.16-.71.06-.51.17-.71c.11-.2.26-.36.45-.47.19-.11.4-.17.64-.17s.43.05.6.15ZM144.55,471.01c-.08-.15-.19-.26-.32-.34-.14-.08-.29-.12-.45-.12s-.31.04-.45.11c-.14.08-.24.19-.32.34-.08.15-.12.32-.12.52s.04.38.12.53c.08.15.19.26.32.34.13.08.28.12.45.12s.31-.04.45-.12c.14-.08.25-.19.33-.34.08-.15.12-.32.12-.52s-.04-.37-.12-.52Z"/>
    <path class="st0" d="M147.93,470.47c.2.2.3.48.3.84v1.56s-.44,0-.44,0v-1.49c0-.26-.06-.47-.19-.61-.13-.14-.31-.21-.54-.21s-.42.07-.55.21-.21.35-.21.63v1.46s-.44,0-.44,0v-2.64s.45,0,.45,0v.38c.09-.13.2-.24.35-.31s.31-.11.49-.11c.32,0,.58.1.78.29Z"/>
    <path class="st0" d="M152.83,469.53v3.36s-.45,0-.45,0v-1.52s-1.7,0-1.7,0v1.52s-.45,0-.45,0v-3.36s.45,0,.45,0v1.48s1.71,0,1.71,0v-1.48s.44,0,.44,0Z"/>
    <path class="st0" d="M155.96,471.74h-2.11c.02.25.1.46.27.6.16.15.36.22.59.22.19,0,.35-.04.48-.13.13-.09.22-.21.27-.35h.47c-.07.26-.21.46-.43.62-.21.16-.48.24-.79.24-.25,0-.47-.06-.67-.17-.2-.11-.35-.27-.46-.48-.11-.21-.17-.45-.17-.72s.06-.51.17-.72c.11-.21.26-.36.46-.47.2-.11.43-.16.68-.16s.47.06.66.17.34.26.44.45c.1.19.15.41.15.65,0,.08,0,.17-.02.27ZM155.41,470.95c-.07-.12-.17-.21-.3-.28-.13-.06-.27-.1-.42-.1-.22,0-.41.07-.57.21-.16.14-.25.34-.27.59h1.67c0-.16-.04-.3-.11-.42Z"/>
    <path class="st0" d="M157.33,470.34c.14-.08.32-.12.52-.12v.45s-.12,0-.12,0c-.49,0-.74.26-.74.8v1.44s-.44,0-.44,0v-2.64s.45,0,.45,0v.43c.08-.15.19-.27.33-.35Z"/>
    <path class="st0" d="M159.13,470.35c.14-.08.32-.12.52-.12v.45s-.12,0-.12,0c-.49,0-.74.26-.74.8v1.44s-.44,0-.44,0v-2.64s.45,0,.45,0v.43c.08-.15.19-.27.33-.35Z"/>
    <path class="st0" d="M160.62,472.8c-.2-.11-.36-.27-.47-.48-.11-.21-.17-.45-.17-.72s.06-.51.18-.72.28-.37.48-.48.43-.16.68-.16.48.06.68.17c.2.11.36.27.48.48.12.21.17.45.17.72s-.06.51-.18.72c-.12.21-.29.37-.49.48-.21.11-.43.17-.69.17s-.47-.06-.67-.17ZM161.74,472.47c.14-.07.25-.18.34-.33.09-.15.13-.33.13-.54s-.04-.39-.12-.54c-.08-.15-.19-.26-.33-.33-.13-.07-.28-.11-.44-.11s-.31.03-.44.11c-.13.07-.24.18-.32.33-.08.15-.12.33-.12.54s.04.4.12.55c.08.15.18.26.31.33.13.07.28.11.43.11s.31-.04.44-.11Z"/>
    <path class="st0" d="M165.31,470.54c.2.2.3.48.3.84v1.56s-.44,0-.44,0v-1.49c0-.26-.06-.47-.19-.61-.13-.14-.31-.21-.54-.21s-.42.07-.55.21-.21.35-.21.63v1.46s-.44,0-.44,0v-2.64s.45,0,.45,0v.38c.09-.13.2-.24.35-.31s.31-.11.49-.11c.32,0,.58.1.78.29Z"/>
    <path class="st0" d="M168.07,472.87c-.18-.08-.31-.19-.41-.33-.1-.14-.15-.3-.15-.49h.47c.02.16.08.29.19.4.11.11.28.16.5.16s.37-.05.49-.15c.12-.1.18-.24.18-.4,0-.13-.03-.23-.1-.31-.07-.08-.16-.14-.26-.18s-.25-.09-.43-.14c-.22-.06-.4-.12-.53-.18s-.25-.15-.34-.27c-.09-.12-.14-.29-.14-.5,0-.18.05-.35.14-.49.09-.14.23-.25.39-.33s.36-.11.58-.11c.32,0,.57.08.77.24.2.16.31.37.34.63h-.48c-.02-.13-.08-.24-.2-.34s-.28-.15-.47-.15c-.18,0-.33.05-.45.14-.12.09-.17.23-.18.4,0,.12.03.22.1.3.07.08.15.14.25.18s.24.09.43.14c.22.06.4.12.53.18.13.06.25.15.35.28.1.12.14.29.14.5,0,.16-.04.32-.13.46-.09.14-.22.26-.39.35-.17.09-.37.13-.6.13s-.42-.04-.59-.12Z"/>
    <path class="st0" d="M170.44,470.92c.11-.2.26-.36.46-.47.19-.11.42-.17.67-.17.32,0,.59.08.8.24.21.16.35.38.41.66h-.47c-.04-.16-.13-.29-.26-.38-.13-.09-.29-.14-.48-.14-.25,0-.45.08-.61.26-.15.17-.23.41-.23.73s.07.56.23.74c.15.17.36.26.61.26.19,0,.35-.04.48-.13s.22-.22.27-.38h.47c-.07.27-.21.49-.43.65-.21.16-.48.24-.8.24-.25,0-.47-.06-.67-.17-.19-.11-.35-.27-.45-.48-.11-.21-.16-.45-.16-.72s.06-.51.17-.72Z"/>
    <path class="st0" d="M175.22,470.42c.16.09.29.21.38.38.09.17.14.38.13.62v1.56s-.44,0-.44,0v-1.49c0-.26-.06-.47-.19-.61-.13-.14-.31-.21-.54-.21s-.42.07-.55.21-.21.35-.21.63v1.46s-.44,0-.44,0v-3.57s.45,0,.45,0v1.3c.08-.13.2-.24.36-.31.15-.07.32-.11.51-.11.2,0,.38.04.54.13Z"/>
    <path class="st0" d="M176.92,472.86c-.2-.11-.36-.27-.47-.48-.11-.21-.17-.45-.17-.72s.06-.51.18-.72.28-.37.48-.48.43-.16.68-.16.48.06.68.17c.2.11.36.27.48.48.12.21.17.45.17.72s-.06.51-.18.72c-.12.21-.29.37-.49.48-.21.11-.43.17-.69.17s-.47-.06-.67-.17ZM178.04,472.54c.14-.07.25-.18.34-.33.09-.15.13-.33.13-.54s-.04-.39-.12-.54c-.08-.15-.19-.26-.33-.33-.13-.07-.28-.11-.44-.11s-.31.03-.44.11c-.13.07-.24.18-.32.33-.08.15-.12.33-.12.54s.04.4.12.55c.08.15.18.26.31.33.13.07.28.11.43.11s.31-.04.44-.11Z"/>
    <path class="st0" d="M180.01,472.88c-.2-.11-.36-.27-.47-.48-.11-.21-.17-.45-.17-.72s.06-.51.18-.72.28-.37.48-.48.43-.16.68-.16.48.06.68.17c.2.11.36.27.48.48.12.21.17.45.17.72s-.06.51-.18.72c-.12.21-.29.37-.49.48-.21.11-.43.17-.69.17s-.47-.06-.67-.17ZM181.13,472.55c.14-.07.25-.18.34-.33.09-.15.13-.33.13-.54s-.04-.39-.12-.54c-.08-.15-.19-.26-.33-.33-.13-.07-.28-.11-.44-.11s-.31.03-.44.11c-.13.07-.24.18-.32.33-.08.15-.12.33-.12.54s.04.4.12.55c.08.15.18.26.31.33.13.07.28.11.43.11s.31-.04.44-.11Z"/>
    <path class="st0" d="M183.07,469.45v3.57s-.45,0-.45,0v-3.57s.45,0,.45,0Z"/>
    <path class="st0" d="M185.57,472.9c-.2-.11-.36-.27-.47-.48-.11-.21-.17-.45-.17-.72s.06-.51.18-.72.28-.37.48-.48.43-.16.68-.16.48.06.68.17c.2.11.36.27.48.48.12.21.17.45.17.72s-.06.51-.18.72c-.12.21-.29.37-.49.48-.21.11-.43.17-.69.17s-.47-.06-.67-.17ZM186.68,472.58c.14-.07.25-.18.34-.33.09-.15.13-.33.13-.54s-.04-.39-.12-.54c-.08-.15-.19-.26-.33-.33-.13-.07-.28-.11-.44-.11s-.31.03-.44.11c-.13.07-.24.18-.32.33-.08.15-.12.33-.12.54s.04.4.12.55c.08.15.18.26.31.33.13.07.28.11.43.11s.31-.04.44-.11Z"/>
    <path class="st0" d="M189.26,470.76h-.55s0,2.28,0,2.28h-.44s0-2.28,0-2.28h-.34s0-.36,0-.36h.34s0-.19,0-.19c0-.3.08-.51.23-.65.15-.14.4-.2.74-.2v.37c-.19,0-.33.04-.41.11-.08.08-.12.2-.12.37v.19s.55,0,.55,0v.36Z"/>
    <path class="st0" d="M193.03,472.31h-1.47s-.27.74-.27.74h-.46s1.23-3.34,1.23-3.34h.51s1.2,3.35,1.2,3.35h-.46s-.27-.75-.27-.75ZM192.91,471.95l-.6-1.7-.61,1.69h1.21Z"/>
    <path class="st0" d="M195.07,470.5c.14-.08.32-.12.52-.12v.45s-.12,0-.12,0c-.49,0-.74.26-.74.8v1.44s-.44,0-.44,0v-2.64s.45,0,.45,0v.43c.08-.15.19-.27.33-.35Z"/>
    <path class="st0" d="M196.64,470.79v1.56c0,.13.02.22.07.27.05.05.15.08.28.08h.32s0,.37,0,.37h-.4c-.24,0-.43-.06-.55-.17-.12-.11-.18-.3-.18-.56v-1.56s-.34,0-.34,0v-.36s.34,0,.34,0v-.67s.44,0,.44,0v.67s.69,0,.69,0v.36s-.69,0-.69,0Z"/>
    <path class="st0" d="M201.65,471.52h-1.03s0,1.04,0,1.04h-.41s0-1.04,0-1.04h-1.02s0-.38,0-.38h1.02s0-1.04,0-1.04h.41s0,1.05,0,1.05h1.03s0,.38,0,.38Z"/>
    <path class="st0" d="M205.73,469.95c.27.14.47.33.61.59s.21.55.21.9-.07.64-.22.89-.35.44-.62.58-.59.2-.95.2h-1.05s.01-3.36.01-3.36h1.05c.37,0,.68.08.95.21ZM205.76,472.4c.23-.23.34-.55.35-.97s-.11-.74-.34-.98c-.23-.24-.56-.35-.99-.36h-.61s-.01,2.64-.01,2.64h.61c.43,0,.77-.11.99-.34Z"/>
    <path class="st0" d="M209.52,471.97h-2.11c.02.25.1.46.27.6.16.15.36.22.59.22.19,0,.35-.04.48-.13.13-.09.22-.21.27-.35h.47c-.07.26-.21.46-.43.62-.21.16-.48.24-.79.24-.25,0-.47-.06-.67-.17-.2-.11-.35-.27-.46-.48-.11-.21-.17-.45-.17-.72s.06-.51.17-.72c.11-.21.26-.36.46-.47.2-.11.43-.16.68-.16s.47.06.66.17.34.26.44.45c.1.19.15.41.15.65,0,.08,0,.17-.02.27ZM208.98,471.18c-.07-.12-.17-.21-.3-.28-.13-.06-.27-.1-.42-.1-.22,0-.41.07-.57.21-.16.14-.25.34-.27.59h1.67c0-.16-.04-.3-.11-.42Z"/>
    <path class="st0" d="M210.5,473.07c-.16-.07-.29-.17-.38-.29-.09-.12-.14-.27-.15-.43h.45c.01.13.07.24.18.33.11.08.26.13.44.13.17,0,.3-.04.4-.11.1-.07.15-.17.15-.28s-.05-.2-.15-.26c-.1-.06-.26-.11-.48-.17-.2-.05-.36-.11-.48-.16-.12-.05-.23-.13-.32-.24-.09-.1-.13-.24-.13-.41,0-.13.04-.26.12-.37.08-.11.2-.2.34-.27.15-.07.32-.1.51-.1.29,0,.53.08.71.22.18.15.27.35.29.61h-.44c0-.14-.06-.25-.16-.34-.1-.08-.24-.13-.41-.13-.16,0-.28.03-.38.1-.09.07-.14.16-.14.26,0,.09.03.16.08.21.06.06.13.1.21.14s.2.07.35.11c.19.05.34.1.46.15s.22.13.31.23.13.23.13.39c0,.14-.04.27-.12.39-.08.12-.19.21-.34.27-.15.07-.31.1-.5.1-.2,0-.38-.04-.54-.11Z"/>
    <path class="st0" d="M213.08,470.5v2.64s-.45,0-.45,0v-2.64s.45,0,.45,0ZM212.66,469.98c-.06-.06-.09-.13-.09-.21s.03-.15.09-.21.13-.09.21-.09.15.03.2.09c.06.06.08.13.08.21s-.03.15-.09.21c-.06.06-.12.09-.21.09s-.15-.03-.21-.09Z"/>
    <path class="st0" d="M215.51,470.61c.17.1.3.23.38.38v-.48s.45,0,.45,0v2.7c-.01.24-.06.46-.17.64-.1.19-.25.33-.44.44-.19.11-.41.16-.67.16-.35,0-.64-.08-.87-.25-.23-.16-.37-.39-.41-.67h.43c.05.16.15.29.3.39s.33.15.54.15c.24,0,.44-.07.59-.22.15-.15.23-.36.23-.64v-.55c-.09.15-.21.28-.38.38-.17.1-.37.15-.6.15s-.45-.06-.64-.18c-.19-.12-.34-.28-.45-.49s-.16-.45-.16-.71.06-.51.17-.71c.11-.2.26-.36.45-.47.19-.11.4-.17.64-.17s.43.05.6.15ZM215.77,471.3c-.08-.15-.19-.26-.32-.34-.14-.08-.29-.12-.45-.12s-.31.04-.45.11c-.14.08-.24.19-.32.34-.08.15-.12.32-.12.52s.04.38.12.53c.08.15.19.26.32.34.13.08.28.12.45.12s.31-.04.45-.12c.14-.08.25-.19.33-.34.08-.15.12-.32.12-.52s-.04-.37-.12-.52Z"/>
    <path class="st0" d="M219.15,470.77c.2.2.3.48.3.84v1.56s-.44,0-.44,0v-1.49c0-.26-.06-.47-.19-.61-.13-.14-.31-.21-.54-.21s-.42.07-.55.21-.21.35-.21.63v1.46s-.44,0-.44,0v-2.64s.45,0,.45,0v.38c.09-.13.2-.24.35-.31s.31-.11.49-.11c.32,0,.58.1.78.29Z"/>
  </g>
</svg>